<?xml version="1.0" standalone="no"?><!DOCTYPE svg PUBLIC "-//W3C//DTD SVG 1.1//EN" "http://www.w3.org/Graphics/SVG/1.1/DTD/svg11.dtd"><svg t="1667285612504" class="icon" viewBox="0 0 1024 1024" version="1.1" xmlns="http://www.w3.org/2000/svg" p-id="3311" xmlns:xlink="http://www.w3.org/1999/xlink" width="24" height="24"><path d="M811.7 259.3c-7.7 0-15.4-2.9-21.2-8.8-153.4-153.4-403-153.4-556.4 0-11.7 11.7-30.7 11.7-42.4 0s-11.7-30.7 0-42.4c43.3-43.3 93.7-76.8 150-99.6 54.3-22 111.7-33.2 170.6-33.2 58.9 0 116.3 11.2 170.6 33.2 56.3 22.8 106.7 56.3 150 99.6 11.7 11.7 11.7 30.7 0 42.4-5.8 5.9-13.5 8.8-21.2 8.8zM167.8 760.2c-10.3 0-20.3-5.3-25.9-14.7-41-69.4-62.7-148.9-62.8-229.9-0.1-81 21.5-160.6 62.3-230 8.4-14.3 26.8-19.1 41.1-10.7 14.3 8.4 19.1 26.8 10.7 41.1-72.4 123.1-72.2 276 0.4 399 8.4 14.3 3.7 32.7-10.6 41.1-4.7 2.8-10 4.1-15.2 4.1zM512.3 947.4c-58.9 0-116.3-11.2-170.6-33.2-56.3-22.8-106.7-56.3-150-99.6-11.7-11.7-11.7-30.7 0-42.4s30.7-11.7 42.4 0c74.3 74.3 173.1 115.2 278.2 115.2s203.9-40.9 278.2-115.2c11.7-11.7 30.7-11.7 42.4 0s11.7 30.7 0 42.4c-43.3 43.3-93.7 76.8-150 99.6-54.3 22-111.7 33.2-170.6 33.2zM855.8 772.5c-5.5 0-11.1-1.5-16.1-4.7-14-8.9-18.1-27.5-9.2-41.4 81.7-128.1 81.9-293.7 0.4-421.9-8.9-14-4.7-32.5 9.2-41.4 14-8.9 32.5-4.7 41.4 9.2 93.9 147.9 93.7 338.8-0.5 486.4-5.6 8.9-15.3 13.8-25.2 13.8z" fill="#e6e6e6" p-id="3312"></path><path d="M817 829.8c-7.3 0-14.7-2.7-20.4-8l-285-265.3-279.2 259.4c-12.1 11.3-31.1 10.6-42.4-1.5-11.3-12.1-10.6-31.1 1.5-42.4l320-297.5 325.9 303.3c12.1 11.3 12.8 30.3 1.5 42.4-5.9 6.4-13.9 9.6-21.9 9.6z" fill="#e6e6e6" p-id="3313"></path><path d="M511.7 557.1L185.6 245.6c-12-11.4-12.4-30.4-1-42.4s30.4-12.4 42.4-1l284.7 272L790.6 208c12-11.4 31-11 42.4 1 11.4 12 11 31-1 42.4L511.7 557.1z" fill="#e6e6e6" p-id="3314"></path></svg>